<svg width="67" height="67" viewBox="0 0 67 67" fill="none" xmlns="http://www.w3.org/2000/svg">
<g clip-path="url(#clip0)">
<path d="M17.6656 56.8323H17.6193C16.5066 56.8323 15.6045 55.9303 15.6045 54.8175V50.2382C15.6045 49.1254 16.5065 48.2233 17.6193 48.2233H17.6656C18.7783 48.2233 19.6804 49.1253 19.6804 50.2382V54.8175C19.6804 55.9303 18.7783 56.8323 17.6656 56.8323Z" fill="#99E6FC"/>
<path d="M28.2374 46.6226H28.1911C27.0784 46.6226 26.1763 45.7206 26.1763 44.6077V42.6192C26.1763 41.5064 27.0783 40.6043 28.1911 40.6043H28.2374C29.3501 40.6043 30.2522 41.5063 30.2522 42.6192V44.6077C30.2521 45.7204 29.3501 46.6226 28.2374 46.6226Z" fill="#C8EFFE"/>
<path d="M28.2374 67H28.1911C27.0784 67 26.1763 66.098 26.1763 64.9852V53.2356C26.1763 52.1229 27.0783 51.2208 28.1911 51.2208H28.2374C29.3501 51.2208 30.2522 52.1228 30.2522 53.2356V64.9852C30.2521 66.098 29.3501 67 28.2374 67Z" fill="#FEDF30"/>
<path d="M38.8091 65.2439H38.7629C37.6502 65.2439 36.748 64.3419 36.748 63.229V62.6213C36.748 61.5086 37.6501 60.6065 38.7629 60.6065H38.8091C39.9219 60.6065 40.824 61.5085 40.824 62.6213V63.229C40.8239 64.3419 39.9219 65.2439 38.8091 65.2439Z" fill="#C8EFFE"/>
<path d="M28.2373 40.6045H28.191C27.8492 40.6045 27.5275 40.6902 27.2454 40.8405C27.8813 41.1793 28.3145 41.8483 28.3145 42.6192V44.6077C28.3145 45.3786 27.8813 46.0476 27.2454 46.3864C27.5274 46.5367 27.849 46.6225 28.191 46.6225H28.2373C29.35 46.6225 30.2521 45.7205 30.2521 44.6076V42.619C30.252 41.5065 29.35 40.6045 28.2373 40.6045V40.6045Z" fill="#99E6FC"/>
<path d="M38.8093 60.6065H38.7631C38.4212 60.6065 38.0995 60.6923 37.8174 60.8426C38.4533 61.1814 38.8866 61.8504 38.8866 62.6213V63.229C38.8866 63.9998 38.4533 64.6689 37.8174 65.0076C38.0994 65.1579 38.4211 65.2437 38.7631 65.2437H38.8093C39.922 65.2437 40.8242 64.3417 40.8242 63.2288V62.6211C40.824 61.5087 39.922 60.6065 38.8093 60.6065V60.6065Z" fill="#99E6FC"/>
<path d="M49.3809 59.9325H49.3347C48.222 59.9325 47.3198 59.0305 47.3198 57.9177V50.6113C47.3198 49.4986 48.2218 48.5964 49.3347 48.5964H49.3809C50.4936 48.5964 51.3958 49.4984 51.3958 50.6113V57.9178C51.3956 59.0305 50.4936 59.9325 49.3809 59.9325Z" fill="#FEDF30"/>
<path d="M51.4808 44.2605L40.8241 37.3407L36.7475 34.6944L35.1676 33.6685C35.1325 33.6456 35.0975 33.6227 35.0638 33.6011C34.5272 33.2601 34.0419 33.0929 33.5242 33.105C33.0174 33.1158 32.4781 33.3018 31.831 33.6685L15.5205 44.2605C13.2018 45.072 10.9963 44.1378 9.77362 42.4742C8.70054 41.0156 8.38239 38.9962 9.40289 37.0994L27.3958 3.64794C28.7089 1.20655 31.1179 -0.00807892 33.5242 9.61281e-06C35.9144 0.00809814 38.3019 1.22273 39.6055 3.64794L57.5971 37.0994C59.781 41.1585 55.8324 45.7824 51.4808 44.2605Z" fill="#0593FC"/>
<path d="M35.0638 33.6011C34.5273 33.2601 34.042 33.0929 33.5243 33.105C33.0174 33.1158 32.4782 33.3019 31.8311 33.6685L15.5206 44.2605C13.2019 45.072 10.9964 44.1378 9.77368 42.4743C10.5664 42.6077 11.4224 42.5511 12.2933 42.2464L27.1977 32.5658C27.6601 32.2665 27.7383 31.6221 27.3635 31.2204L26.4518 30.2449C26.3664 30.1535 26.3925 30.0054 26.5035 29.9474C27.0554 29.6593 27.5295 29.5125 27.9783 29.503C28.5283 29.4895 29.0433 29.6809 29.6216 30.0665L35.0638 33.6011Z" fill="#0182FC"/>
<path d="M57.5971 37.0989L39.6048 3.64769C38.3012 1.22328 35.9149 0.00838646 33.5246 0.000163121C32.8629 -0.00212863 32.2018 0.0915635 31.5625 0.274364C33.2477 0.756441 34.7765 1.87845 35.7277 3.64769L53.72 37.0989C55.2423 39.928 53.7853 43.0305 51.2893 44.1366L51.4801 44.2605C55.8327 45.7821 59.7815 41.1582 57.5971 37.0989V37.0989Z" fill="#0182FC"/>
<path d="M38.8091 55.8902H38.7629C37.6502 55.8902 36.748 54.9882 36.748 53.8754V30.1098C36.748 28.9971 37.6501 28.0949 38.7629 28.0949H38.8091C39.9219 28.0949 40.824 28.9969 40.824 30.1098V53.8754C40.8239 54.9881 39.9219 55.8902 38.8091 55.8902Z" fill="#99E6FC"/>
<path d="M17.6655 48.2234H17.6193C17.2214 48.2234 16.8513 48.3404 16.5388 48.5395C17.0999 48.8972 17.4732 49.5235 17.4732 50.2381V54.8174C17.4732 55.5322 17.1 56.1584 16.5388 56.5162C16.8513 56.7154 17.2212 56.8323 17.6193 56.8323H17.6655C18.7783 56.8323 19.6804 55.9303 19.6804 54.8174V50.2381C19.6804 49.1255 18.7783 48.2234 17.6655 48.2234V48.2234Z" fill="#62DBFB"/>
<path d="M28.2373 51.2209H28.1911C27.7931 51.2209 27.4231 51.338 27.1106 51.5371C27.6717 51.8947 28.045 52.521 28.045 53.2357V64.9852C28.045 65.7 27.6718 66.3262 27.1106 66.6838C27.4231 66.883 27.793 66.9999 28.1911 66.9999H28.2373C29.35 66.9999 30.2522 66.0979 30.2522 64.9851V53.2355C30.252 52.123 29.35 51.2209 28.2373 51.2209V51.2209Z" fill="#FAC600"/>
<path d="M49.3809 48.5964H49.3346C48.9367 48.5964 48.5666 48.7133 48.2542 48.9126C48.8152 49.2702 49.1885 49.8965 49.1885 50.6113V57.9178C49.1885 58.6326 48.8154 59.2587 48.2542 59.6164C48.5666 59.8156 48.9365 59.9325 49.3346 59.9325H49.3809C50.4936 59.9325 51.3957 59.0305 51.3957 57.9177V50.6113C51.3957 49.4986 50.4937 48.5964 49.3809 48.5964V48.5964Z" fill="#FAC600"/>
<path d="M38.8091 28.0949H38.7629C38.3649 28.0949 37.9949 28.2118 37.6824 28.4111C38.2434 28.7687 38.6167 29.395 38.6167 30.1098V53.8754C38.6167 54.5901 38.2436 55.2163 37.6824 55.574C37.9949 55.7732 38.3648 55.8901 38.7629 55.8901H38.8091C39.9218 55.8901 40.824 54.9881 40.824 53.8753V30.1098C40.8238 28.9969 39.9218 28.0949 38.8091 28.0949V28.0949Z" fill="#62DBFB"/>
</g>
<defs>
<clipPath id="clip0">
<rect width="67" height="67" fill="white"/>
</clipPath>
</defs>
</svg>
