<svg width="82" height="82" viewBox="0 0 82 82" fill="none" xmlns="http://www.w3.org/2000/svg">
<g clip-path="url(#clip0)">
<path d="M37.9212 43.145C39.2454 44.102 40.8737 44.6662 42.6343 44.6662H57.6946V51.9687L67.2412 44.6662H71.3597C75.7994 44.6662 79.3985 41.0782 79.3985 36.652V8.01422C79.3987 3.58804 75.7996 0 71.3597 0H42.6341C38.1944 0 34.5953 3.58804 34.5953 8.01422V43.145H37.9212Z" fill="#99E6FC"/>
<path d="M71.3597 0H64.4742C68.9141 0 72.5132 3.5882 72.5132 8.01422V36.652C72.5132 41.0782 68.9141 44.6662 64.4744 44.6662H60.3559L57.6946 46.7019V51.9687L67.2412 44.6662H71.3597C75.7994 44.6662 79.3985 41.0782 79.3985 36.652V8.01422C79.3987 3.5882 75.7994 0 71.3597 0V0Z" fill="#79CFE8"/>
<path d="M50.8025 32.9193L51.6311 33.59C52.9447 34.6533 54.5838 35.2336 56.2737 35.2336H68.0362C69.1512 35.2336 70.0491 34.3034 69.996 33.1767C69.9463 32.1214 69.9983 22.5109 69.9983 21.4274C69.9983 20.3439 69.1199 19.4653 68.0362 19.4653L60.0601 19.4413L61.0367 17.1284C62.0514 14.7252 61.8874 11.986 60.593 9.72104C59.8913 8.6364 58.1873 9.03551 58.1541 10.3688C58.1541 12.4429 57.3968 14.4455 56.0246 16.0007L50.9386 21.7557H49.0845V32.9191H50.8025V32.9193Z" fill="white"/>
<path d="M50.0085 34.6891H44.6383C44.2834 34.6891 43.9955 34.4014 43.9955 34.0463V20.3564C43.9955 20.0015 44.2832 19.7136 44.6383 19.7136H50.0085C50.3634 19.7136 50.6513 20.0014 50.6513 20.3564V34.0463C50.6512 34.4012 50.3634 34.6891 50.0085 34.6891Z" fill="#2CA3FB"/>
<path d="M37.9328 57.4969V28.5936C37.9328 25.1032 35.0947 22.2737 31.5934 22.2737H8.94097C5.43988 22.2737 2.60156 25.1032 2.60156 28.5936V51.1769C2.60156 54.6673 5.43972 57.4969 8.94097 57.4969H21.3853V63.3095L28.9137 57.4969H37.9328Z" fill="#0593FC"/>
<path d="M31.5933 22.2737H22.6163C26.1174 22.2737 28.9557 25.1032 28.9557 28.5936V57.4969H37.9327V28.5936C37.9325 25.1032 35.0944 22.2737 31.5933 22.2737V22.2737Z" fill="#62A6FD"/>
<path d="M28.5742 41.7421H24.0183L24.5174 38.7234H28.5742C30.1704 38.7234 30.1704 36.2486 28.5742 36.2486H24.9266L25.608 32.1273C25.8683 30.5526 23.4268 30.1487 23.1663 31.7237L22.4182 36.2486H19.433L20.1145 32.1273C20.3748 30.5526 17.9336 30.1486 17.6728 31.7237L16.9247 36.2486H11.9597C10.3634 36.2486 10.3634 38.7234 11.9597 38.7234H16.5155L16.0164 41.7421H11.9597C10.3634 41.7421 10.3634 44.2169 11.9597 44.2169H15.6073L14.9259 48.3382C14.6681 49.8962 17.1067 50.3189 17.3675 48.7418L18.1156 44.2169H21.1008L20.4194 48.3382C20.1616 49.8962 22.6002 50.3189 22.861 48.7418L23.6091 44.2169H28.5742C30.1704 44.2169 30.1704 41.7421 28.5742 41.7421V41.7421ZM21.5099 41.7421H18.5249L19.024 38.7234H22.0092L21.5099 41.7421Z" fill="#F7F3F1"/>
<path d="M50.1953 52.879H34.12C31.6354 52.879 29.6212 54.8869 29.6212 57.3639V73.39C29.6212 75.867 31.6354 77.875 34.12 77.875H42.9511V82L48.2936 77.8751H50.1953C52.6799 77.8751 54.6941 75.8672 54.6941 73.3902V57.3641C54.6941 54.8871 52.6799 52.879 50.1953 52.879Z" fill="#F952A5"/>
<path d="M50.1953 52.879H43.2657C45.7503 52.879 47.7645 54.8869 47.7645 57.3639V73.3902C47.7645 75.8672 45.7503 77.8751 43.2657 77.8751H42.951V82L48.2936 77.8751H50.1953C52.6799 77.8751 54.6941 75.8672 54.6941 73.3902V57.3639C54.6941 54.8871 52.6799 52.879 50.1953 52.879Z" fill="#FF6CB5"/>
<path d="M42.1578 70.8224C46.0261 68.7717 48.0302 67.0268 48.0302 64.3236C48.0302 60.595 43.4627 59.6628 42.1578 62.4594C40.6663 59.5698 36.2853 60.5952 36.2853 64.3236C36.2853 67.0268 38.2894 68.7716 42.1578 70.8224Z" fill="#F7F3F1"/>
</g>
<defs>
<clipPath id="clip0">
<rect width="82" height="82" fill="white"/>
</clipPath>
</defs>
</svg>
