<svg width="58" height="58" viewBox="0 0 58 58" fill="none" xmlns="http://www.w3.org/2000/svg">
<g clip-path="url(#clip0)">
<path d="M31.4959 45.8378L29.0211 48.3127C28.3371 48.9967 27.2301 48.9967 26.5462 48.3127C25.8622 47.6287 25.8622 46.5217 26.5462 45.8378L29.0211 43.363C29.7038 42.6802 29.7038 41.5708 29.0211 40.8881L26.7456 38.6126C26.0616 37.9286 26.0616 36.8217 26.7456 36.1378C27.4296 35.4538 28.5365 35.4538 29.2204 36.1378L31.4959 38.4133C33.5431 40.4602 33.5431 43.7906 31.4959 45.8378Z" fill="#713708"/>
<path d="M35.208 56.9748C33.8412 58.3416 31.625 58.3416 30.2583 56.9748L17.8838 44.6003L22.8335 39.6505L35.208 52.025C36.575 53.3918 36.575 55.6079 35.208 56.9748Z" fill="#2CA3FB"/>
<path d="M17.7849 29.6517L25.4572 37.324L25.3087 42.1253L16.6466 50.7875C14.5924 52.8416 11.2265 52.7922 9.17238 50.7379L4.22256 45.7881C2.19313 43.7586 2.21782 40.467 4.27218 38.4129L12.9343 29.7507L17.7849 29.6517Z" fill="#2CA3FB"/>
<path d="M21.5961 33.4632L25.4569 37.3241L25.3084 42.1254L16.6462 50.7876C14.5921 52.8417 11.2262 52.7923 9.17205 50.738L6.74658 48.3125L21.5961 33.4632Z" fill="#2595E9"/>
<path d="M39.5346 7.00054C38.5691 7.00167 37.7848 6.21743 37.7848 5.2508L37.7837 1.74995C37.7835 0.783099 38.5666 -1.40331e-05 39.5334 -1.40331e-05C40.4989 -0.00114685 41.2832 0.783099 41.2832 1.74973L41.2843 5.25057C41.2844 6.21743 40.5014 7.00054 39.5346 7.00054Z" fill="#FFA000"/>
<path d="M53.5348 17.5008L50.0339 17.4997C49.0672 17.4997 48.2828 16.7154 48.2842 15.7499C48.2842 14.7832 49.0673 14.0002 50.0339 14.0002L53.5348 14.0013C54.5015 14.0013 55.2859 14.7856 55.2845 15.7511C55.2845 16.7177 54.5015 17.5008 53.5348 17.5008Z" fill="#FFA000"/>
<path d="M51.2954 3.76434C51.9883 4.45728 51.9884 5.54626 51.2954 6.2392L47.583 9.95154C46.89 10.6446 45.801 10.6445 45.1082 9.95154C44.4151 9.25848 44.4151 8.16962 45.1082 7.47668L48.8205 3.76434C49.5134 3.07129 50.6023 3.07129 51.2954 3.76434Z" fill="#FFA000"/>
<path d="M30.2585 7.47667L47.5829 24.801C48.0779 25.296 48.6965 30.518 49.34 30.6171L44.4646 31.6319C37.2378 33.0672 30.3823 37.0519 25.7295 41.7047L25.3088 42.1254L12.9341 29.7508L13.3548 29.3301C18.2552 24.4297 21.8685 17.9453 23.3534 10.5208L24.368 5.44724L30.2585 7.47667Z" fill="#CAE8F9"/>
<path d="M16.6463 38.413C17.3392 39.106 17.3393 40.1949 16.6463 40.8879L14.1714 43.3628C13.4783 44.0559 12.3894 44.0558 11.6965 43.3628C11.0035 42.6698 11.0035 41.5809 11.6965 40.888L14.1714 38.4131C14.8645 37.7201 15.9533 37.7201 16.6463 38.413Z" fill="#E1E4FB"/>
<path d="M38.9208 16.1389L47.5829 24.801C48.078 25.2961 48.6966 30.518 49.34 30.6171L44.4646 31.6319C37.2379 33.0673 30.3824 37.0519 25.7296 41.7047L25.3089 42.1255L19.1216 35.9382L38.9208 16.1389Z" fill="#B7E0F6"/>
<path d="M16.6465 38.413C17.3394 39.1059 17.3395 40.1949 16.6465 40.8878L14.1716 43.3628C13.4786 44.0559 12.3896 44.0557 11.6968 43.3628L16.6465 38.413Z" fill="#C5C9F7"/>
<path d="M30.2582 2.52698L52.5324 24.8011C53.8936 26.1623 53.8936 28.3898 52.5324 29.751C52.3839 29.8995 52.1859 29.9984 51.9877 30.0974C51.1958 30.642 50.2554 30.8399 49.3396 30.6171C48.6962 30.5182 48.0775 30.246 47.5825 29.751L25.3083 7.47669C24.7389 6.90734 24.4668 6.1897 24.3677 5.44726C24.2688 4.70481 24.4175 3.96214 24.7886 3.29412C24.9618 3.02179 25.0855 2.74969 25.3083 2.52686C26.6695 1.16579 28.8971 1.16579 30.2582 2.52698Z" fill="#2CA3FB"/>
<path d="M41.3952 13.664L52.5323 24.801C53.8935 26.1622 53.8935 28.3896 52.5323 29.7508C52.3838 29.8993 52.1857 29.9982 51.9876 30.0972C51.1957 30.6419 50.2553 30.8398 49.3394 30.617C48.6961 30.5181 48.0774 30.2459 47.5823 29.7508L36.4453 18.6138L41.3952 13.664Z" fill="#2595E9"/>
</g>
<defs>
<clipPath id="clip0">
<rect width="58" height="58" fill="white"/>
</clipPath>
</defs>
</svg>
