<svg width="62" height="62" viewBox="0 0 62 62" fill="none" xmlns="http://www.w3.org/2000/svg">
<g clip-path="url(#clip0)">
<path d="M18.4979 46.1724L15.8461 43.5206L23.7417 35.6249L26.3936 38.2767L18.4979 46.1724Z" fill="#A1B8D8"/>
<path d="M17.1707 44.8458L15.8447 43.5199L23.7404 35.6243L25.0663 36.9502L17.1707 44.8458Z" fill="#C3DAFD"/>
<path d="M9.12439 61.9861L0.0316093 52.8933L13.9553 38.9696L23.0481 48.0623L9.12439 61.9861Z" fill="#2B4C9F"/>
<path d="M9.12415 61.9865L4.57776 57.4401L18.5014 43.5165L23.0478 48.0629L9.12415 61.9865Z" fill="#213B82"/>
<path d="M39.7015 44.5059C51.958 44.5059 61.8939 34.57 61.8939 22.3135C61.8939 10.057 51.958 0.121155 39.7015 0.121155C27.445 0.121155 17.5092 10.057 17.5092 22.3135C17.5092 34.57 27.445 44.5059 39.7015 44.5059Z" fill="#91B9D7"/>
<path d="M31.9591 52.6229C31.9591 51.5871 32.7988 50.7475 33.8345 50.7475H60.0902C61.1259 50.7475 61.9656 51.5871 61.9656 52.6229V52.6229C61.9656 53.6587 61.1259 54.4983 60.0902 54.4983H33.8345C32.7988 54.4983 31.9591 53.6587 31.9591 52.6229V52.6229Z" fill="#2CA3FB"/>
<path d="M20.7065 60.1246C20.7065 59.0889 21.5462 58.2492 22.582 58.2492H41.3361C42.3718 58.2492 43.2115 59.0889 43.2115 60.1246V60.1246C43.2115 61.1604 42.3718 62 41.3361 62H22.582C21.5462 62 20.7065 61.1604 20.7065 60.1246V60.1246Z" fill="#84D9F3"/>
<path d="M49.3983 12.6172C50.1493 11.8661 54.6441 7.37137 55.3942 6.62121C46.7276 -2.04545 32.6761 -2.04545 24.0094 6.62121C15.3167 15.3139 15.3714 29.368 24.0094 38.0059L30.0031 32.0122C30.0031 32.012 30.003 32.012 30.003 32.012L30.0054 32.0098C32.4897 34.4955 35.9206 36.035 39.704 36.035C47.2691 36.035 53.4235 29.8804 53.4235 22.3155C53.4234 18.5322 51.8839 15.1014 49.3983 12.6172V12.6172Z" fill="#E4F3FF"/>
<path d="M30.0029 12.6148C35.4957 7.17332 44.1149 7.33611 49.3981 12.6171L30.0052 32.0098C24.6534 26.6553 24.6334 17.9766 30.0029 12.6148V12.6148Z" fill="#FBF4F4"/>
<path d="M22.9903 0V3.75082H18.1408L36.8764 22.4864L42.6276 16.7349C43.6704 17.7778 51.1662 25.2736 52.6759 26.7833C52.2414 28.0413 51.6292 29.2172 50.8685 30.2804C48.7145 28.1266 44.0662 23.478 42.6277 22.0396L36.8766 27.791L15.4886 6.40303V11.2525H11.7378V0H22.9903Z" fill="#FAC600"/>
</g>
<defs>
<clipPath id="clip0">
<rect width="62" height="62" fill="white"/>
</clipPath>
</defs>
</svg>
