<svg width="62" height="62" viewBox="0 0 62 62" fill="none" xmlns="http://www.w3.org/2000/svg">
<path d="M23.25 44.5625C35.0206 44.5625 44.5625 35.0206 44.5625 23.25C44.5625 11.4794 35.0206 1.9375 23.25 1.9375C11.4794 1.9375 1.9375 11.4794 1.9375 23.25C1.9375 35.0206 11.4794 44.5625 23.25 44.5625Z" fill="#FFA000"/>
<path d="M23.25 39.7188C32.3454 39.7188 39.7188 32.3454 39.7188 23.25C39.7188 14.1546 32.3454 6.78125 23.25 6.78125C14.1546 6.78125 6.78125 14.1546 6.78125 23.25C6.78125 32.3454 14.1546 39.7188 23.25 39.7188Z" fill="#FFD54F"/>
<path d="M22.5886 34.2453V31.982C18.9655 31.7369 16.9998 29.7971 17.1157 26.1889H19.2926C19.2054 28.3658 20.3685 29.9477 22.5886 30.0383V23.619C19.6123 23.1084 17.5105 21.8387 17.4724 18.8348C17.4562 15.8744 19.6463 14.0985 22.5886 13.9768V12.2547H23.8674V13.9765C26.8608 14.2118 28.8896 15.6568 28.934 18.6622H26.7446C26.7392 18.2927 26.66 17.9279 26.5116 17.5894C26.3632 17.2509 26.1486 16.9455 25.8805 16.6911C25.6124 16.4368 25.2961 16.2386 24.9503 16.1082C24.6044 15.9778 24.236 15.9179 23.8667 15.932V21.6262C27.3617 22.4948 29.2926 23.2731 29.3886 26.7425C29.3765 29.9918 27.0961 31.622 23.8667 31.957V34.2453H22.5886ZM22.5886 21.4302V15.9083C22.2095 15.87 21.8265 15.9136 21.4657 16.0361C21.1048 16.1586 20.7744 16.3571 20.4969 16.6183C20.2194 16.8795 20.0012 17.1972 19.8571 17.55C19.713 17.9028 19.6463 18.2824 19.6616 18.6632C19.6865 20.4429 20.8179 21.1206 22.5886 21.4298V21.4302ZM23.8674 30.1376C25.7829 29.9628 27.0895 28.9427 27.0896 27.0138C27.04 25.0738 25.8057 24.4532 23.8674 23.9514V30.1376Z" fill="#FFA000"/>
<path d="M57.9385 48.6163L43.464 36.4871L44.8203 35.1308C45.07 34.8745 45.2444 34.5544 45.3244 34.2055C45.4043 33.8567 45.3867 33.4926 45.2736 33.1531C45.1604 32.8135 44.956 32.5117 44.6827 32.2806C44.4094 32.0495 44.0778 31.898 43.7242 31.8428L32.4171 30.2242C32.1197 30.1839 31.817 30.2128 31.5326 30.3086C31.2482 30.4045 30.9898 30.5648 30.7776 30.7769C30.5653 30.9891 30.4049 31.2474 30.3089 31.5318C30.2129 31.8161 30.1839 32.1188 30.2241 32.4162L31.8433 43.7252C31.8986 44.0788 32.0501 44.4103 32.2813 44.6834C32.5125 44.9566 32.8143 45.1609 33.1539 45.2739C33.4934 45.387 33.8575 45.4044 34.2062 45.3243C34.555 45.2442 34.875 45.0697 35.1312 44.8199L36.487 43.4642L48.6162 57.9386C48.8768 58.2452 49.1978 58.4947 49.5592 58.6716C49.9206 58.8485 50.3146 58.9489 50.7165 58.9666C51.1185 58.9843 51.5198 58.9188 51.8953 58.7743C52.2708 58.6299 52.6125 58.4095 52.899 58.1269L58.1268 52.8991C58.4093 52.6126 58.6296 52.2709 58.774 51.8954C58.9184 51.5198 58.9839 51.1186 58.9662 50.7166C58.9485 50.3147 58.8481 49.9207 58.6713 49.5594C58.4945 49.198 58.245 48.8769 57.9385 48.6163Z" fill="#8BC34A"/>
</svg>
