<svg width="44" height="45" viewBox="0 0 44 45" fill="none" xmlns="http://www.w3.org/2000/svg">
<g clip-path="url(#clip0)">
<path d="M32.9986 38.7335L26.404 32.1388L31.8734 26.6701L38.4677 33.2644L38.5505 38.8163L32.9986 38.7335Z" fill="#D2E3F1"/>
<path d="M38.4678 33.2645L42.8691 37.6657C44.377 39.1736 44.3769 41.6269 42.8691 43.1348C41.3613 44.6427 38.9079 44.6427 37.4001 43.1348L32.9988 38.7335L38.4678 33.2645Z" fill="#FB7A5B"/>
<path d="M19.5078 0.265625L30.4092 19.7734L19.5078 39.2812C8.75113 39.2812 -5.69544e-05 30.5301 -5.69544e-05 19.7734C-5.69544e-05 9.01681 8.75113 0.265625 19.5078 0.265625Z" fill="#185E98"/>
<path d="M39.0156 19.7734C39.0156 30.5301 30.2644 39.2812 19.5078 39.2812V0.265625C30.2644 0.265625 39.0156 9.01681 39.0156 19.7734Z" fill="#185E98"/>
<path d="M19.5077 2.84375L28.9684 19.7734L19.5077 36.7031C10.1727 36.7031 2.57801 29.1085 2.57801 19.7734C2.57801 10.4384 10.1727 2.84375 19.5077 2.84375Z" fill="white"/>
<path d="M36.4375 19.7734C36.4375 29.1085 28.8429 36.7031 19.5078 36.7031V2.84375C28.8429 2.84375 36.4375 10.4384 36.4375 19.7734Z" fill="white"/>
<path d="M5.75884 23.1838V16.363L9.93704 15.4883C10.2301 14.8329 10.5896 14.211 11.0119 13.6288L9.67983 9.57169L15.5867 6.16125L18.4352 9.34429C18.7917 9.30786 19.1498 9.28964 19.5078 9.28964L24.6641 19.7734L19.5078 30.2572C19.1497 30.2572 18.7917 30.239 18.4352 30.2025L15.5867 33.3856L9.67983 29.9751L11.0119 25.918C10.5896 25.3358 10.2301 24.714 9.93704 24.0586L5.75884 23.1838Z" fill="#A5C6E3"/>
<path d="M20.5802 9.34423L23.4286 6.16119L29.3357 9.57162L28.0037 13.6287C28.4259 14.2109 28.7854 14.8328 29.0785 15.4882L33.2566 16.3629V23.1837L29.0785 24.0584C28.7854 24.7137 28.426 25.3356 28.0037 25.9179L29.3357 29.9751L23.4286 33.3855L20.5802 30.2025C20.2238 30.2389 19.8657 30.2571 19.5077 30.2571V9.28958C19.8658 9.28958 20.2238 9.30779 20.5802 9.34423Z" fill="#A5C6E3"/>
<path d="M19.5079 12.0391L23.8301 19.7734L19.5079 27.5078C15.2432 27.5078 11.7736 24.0382 11.7736 19.7734C11.7736 15.5087 15.2432 12.0391 19.5079 12.0391Z" fill="#1D71B8"/>
<path d="M27.2422 19.7734C27.2422 24.0382 23.7725 27.5078 19.5078 27.5078V12.0391C23.7725 12.0391 27.2422 15.5087 27.2422 19.7734Z" fill="#77AAD4"/>
<path d="M19.5076 15.4766L21.9088 19.7734L19.5076 24.0703C17.1383 24.0703 15.2108 22.1427 15.2108 19.7734C15.2108 17.4041 17.1383 15.4766 19.5076 15.4766Z" fill="#D2E3F1"/>
<path d="M23.8047 19.7734C23.8047 22.1427 21.8771 24.0703 19.5078 24.0703V15.4766C21.8771 15.4766 23.8047 17.4041 23.8047 19.7734Z" fill="white"/>
</g>
<defs>
<clipPath id="clip0">
<rect width="44" height="44" fill="white" transform="matrix(-1 0 0 1 44 0.265625)"/>
</clipPath>
</defs>
</svg>
